<svg width="100" height="100" viewBox="0 0 100 100" fill="none" xmlns="http://www.w3.org/2000/svg">
<path d="M70.8333 54.1667H45.8333V50H70.8333V54.1667ZM70.8333 33.3333H45.8333V37.5H70.8333V33.3333ZM70.8333 66.6667H45.8333V70.8333H70.8333V66.6667ZM37.5 33.3333H29.1667V37.5H37.5V33.3333ZM37.5 50H29.1667V54.1667H37.5V50ZM37.5 66.6667H29.1667V70.8333H37.5V66.6667ZM87.5 89.5833V8.33333H66.4583C65.4917 3.58333 61.2833 0 56.25 0H43.75C38.7167 0 34.5125 3.58333 33.5417 8.33333H12.5V89.5833C12.5 95.3292 17.175 100 22.9167 100H77.0833C82.825 100 87.5 95.3292 87.5 89.5833ZM37.5 12.5V10.4167C37.5 6.97083 40.3042 4.16667 43.75 4.16667H56.25C59.6958 4.16667 62.5 6.97083 62.5 10.4167V12.5H83.3333V89.5833C83.3333 93.0292 80.5292 95.8333 77.0833 95.8333H22.9167C19.4708 95.8333 16.6667 93.0292 16.6667 89.5833V12.5H37.5Z" fill="#141414"/>
<path d="M70.8333 54.1667H45.8333V50H70.8333V54.1667ZM70.8333 33.3333H45.8333V37.5H70.8333V33.3333ZM70.8333 66.6667H45.8333V70.8333H70.8333V66.6667ZM37.5 33.3333H29.1667V37.5H37.5V33.3333ZM37.5 50H29.1667V54.1667H37.5V50ZM37.5 66.6667H29.1667V70.8333H37.5V66.6667ZM87.5 89.5833V8.33333H66.4583C65.4917 3.58333 61.2833 0 56.25 0H43.75C38.7167 0 34.5125 3.58333 33.5417 8.33333H12.5V89.5833C12.5 95.3292 17.175 100 22.9167 100H77.0833C82.825 100 87.5 95.3292 87.5 89.5833ZM37.5 12.5V10.4167C37.5 6.97083 40.3042 4.16667 43.75 4.16667H56.25C59.6958 4.16667 62.5 6.97083 62.5 10.4167V12.5H83.3333V89.5833C83.3333 93.0292 80.5292 95.8333 77.0833 95.8333H22.9167C19.4708 95.8333 16.6667 93.0292 16.6667 89.5833V12.5H37.5Z" fill="#141414"/>
</svg>
