<svg width="100" height="100" viewBox="0 0 100 100" fill="none" xmlns="http://www.w3.org/2000/svg">
<g clip-path="url(#clip0_97_55)">
<path d="M95.1208 38.2167L78.9583 22.0542C78.1725 21.2952 77.12 20.8752 76.0275 20.8847C74.935 20.8942 73.8899 21.3324 73.1174 22.1049C72.3449 22.8774 71.9067 23.9225 71.8972 25.015C71.8877 26.1075 72.3076 27.16 73.0666 27.9458L89.2291 44.1083C89.7093 44.598 90.129 45.1436 90.4791 45.7333C90.4166 45.7333 90.3666 45.7 90.3041 45.7L24.9541 45.8333C23.8491 45.8333 22.7893 46.2723 22.0079 47.0537C21.2265 47.8351 20.7875 48.8949 20.7875 50C20.7875 51.1051 21.2265 52.1649 22.0079 52.9463C22.7893 53.7277 23.8491 54.1667 24.9541 54.1667L90.2791 54.0333C90.3958 54.0333 90.4916 53.975 90.6041 53.9667C90.2346 54.6715 89.7659 55.3197 89.2125 55.8917L73.05 72.0541C72.652 72.4385 72.3346 72.8983 72.1162 73.4066C71.8979 73.915 71.7829 74.4617 71.7781 75.015C71.7733 75.5682 71.8787 76.1169 72.0882 76.629C72.2977 77.141 72.6071 77.6062 72.9983 77.9975C73.3896 78.3887 73.8548 78.6981 74.3668 78.9076C74.8789 79.1171 75.4276 79.2225 75.9808 79.2177C76.5341 79.2129 77.0808 79.0979 77.5892 78.8796C78.0975 78.6612 78.5573 78.3438 78.9416 77.9458L95.1041 61.7833C98.2287 58.6579 99.9839 54.4194 99.9839 50C99.9839 45.5806 98.2287 41.3421 95.1041 38.2167H95.1208Z" fill="white"/>
<path d="M29.1667 91.6667H20.8333C17.5181 91.6667 14.3387 90.3497 11.9945 88.0055C9.65029 85.6613 8.33333 82.4819 8.33333 79.1667V20.8333C8.33333 17.5181 9.65029 14.3387 11.9945 11.9945C14.3387 9.65029 17.5181 8.33333 20.8333 8.33333H29.1667C30.2717 8.33333 31.3315 7.89435 32.1129 7.11294C32.8943 6.33154 33.3333 5.27174 33.3333 4.16667C33.3333 3.0616 32.8943 2.00179 32.1129 1.22039C31.3315 0.438987 30.2717 0 29.1667 0L20.8333 0C15.31 0.00661607 10.0148 2.20367 6.10925 6.10925C2.20367 10.0148 0.00661607 15.31 0 20.8333L0 79.1667C0.00661607 84.69 2.20367 89.9852 6.10925 93.8908C10.0148 97.7963 15.31 99.9934 20.8333 100H29.1667C30.2717 100 31.3315 99.561 32.1129 98.7796C32.8943 97.9982 33.3333 96.9384 33.3333 95.8333C33.3333 94.7283 32.8943 93.6684 32.1129 92.887C31.3315 92.1056 30.2717 91.6667 29.1667 91.6667Z" fill="white"/>
</g>
<defs>
<clipPath id="clip0_97_55">
<rect width="100" height="100" fill="white"/>
</clipPath>
</defs>
</svg>
