<svg width="100" height="100" viewBox="0 0 100 100" fill="none" xmlns="http://www.w3.org/2000/svg">
<path d="M87.5 31.25C87.5 32.4 86.5667 33.3333 85.4167 33.3333H72.9167C71.7667 33.3333 70.8333 32.4 70.8333 31.25C70.8333 30.1 71.7667 29.1667 72.9167 29.1667H85.4167C86.5667 29.1667 87.5 30.1 87.5 31.25ZM85.4167 41.6667H72.9167C71.7667 41.6667 70.8333 42.6 70.8333 43.75C70.8333 44.9 71.7667 45.8333 72.9167 45.8333H85.4167C86.5667 45.8333 87.5 44.9 87.5 43.75C87.5 42.6 86.5667 41.6667 85.4167 41.6667ZM85.4167 54.1667H72.9167C71.7667 54.1667 70.8333 55.1 70.8333 56.25C70.8333 57.4 71.7667 58.3333 72.9167 58.3333H85.4167C86.5667 58.3333 87.5 57.4 87.5 56.25C87.5 55.1 86.5667 54.1667 85.4167 54.1667ZM85.4167 66.6667H72.9167C71.7667 66.6667 70.8333 67.6 70.8333 68.75C70.8333 69.9 71.7667 70.8333 72.9167 70.8333H85.4167C86.5667 70.8333 87.5 69.9 87.5 68.75C87.5 67.6 86.5667 66.6667 85.4167 66.6667ZM100 31.25V68.75C100 79.0875 91.5875 87.5 81.25 87.5H18.75C8.4125 87.5 0 79.0875 0 68.75V31.25C0 20.9125 8.4125 12.5 18.75 12.5H81.25C91.5875 12.5 100 20.9125 100 31.25ZM95.8333 31.25C95.8333 23.2083 89.2917 16.6667 81.25 16.6667H18.75C10.7083 16.6667 4.16667 23.2083 4.16667 31.25V68.75C4.16667 76.7917 10.7083 83.3333 18.75 83.3333H81.25C89.2917 83.3333 95.8333 76.7917 95.8333 68.75V31.25ZM62.5 50C62.5 63.7875 51.2875 75 37.5 75C23.7125 75 12.5 63.7875 12.5 50C12.5 36.2125 23.7125 25 37.5 25C51.2875 25 62.5 36.2125 62.5 50ZM37.5 70.8333C42.4917 70.8333 47.0167 68.9958 50.6083 66.0583L37.2458 52.6958C36.0667 51.5167 35.4167 49.9458 35.4167 48.275V29.3792C24.9167 30.4417 16.6667 39.2292 16.6667 50C16.6667 61.4875 26.0125 70.8333 37.5 70.8333ZM58.3333 50C58.3333 39.225 50.0833 30.4417 39.5833 29.3792V48.275C39.5833 48.8208 39.8083 49.3583 40.1917 49.75L53.5542 63.1125C56.4958 59.5208 58.3333 54.9958 58.3333 50Z" fill="#141414"/>
</svg>
