<svg width="100" height="100" viewBox="0 0 100 100" fill="none" xmlns="http://www.w3.org/2000/svg">
<g clip-path="url(#clip0_97_76)">
<path d="M56.25 20.8333H43.75C35.7083 20.8333 29.1667 27.375 29.1667 35.4167V77.0833C29.1667 78.2333 30.1 79.1667 31.25 79.1667C32.4 79.1667 33.3333 78.2333 33.3333 77.0833V58.3333H56.25C66.5875 58.3333 75 49.9208 75 39.5833C75 29.2458 66.5875 20.8333 56.25 20.8333ZM56.25 54.1667H33.3333V35.4167C33.3333 29.675 38.0042 25 43.75 25H56.25C64.2917 25 70.8333 31.5417 70.8333 39.5833C70.8333 47.625 64.2917 54.1667 56.25 54.1667ZM50 0C22.4292 0 0 22.4292 0 50C0 77.5708 22.4292 100 50 100C77.5708 100 100 77.5708 100 50C100 22.4292 77.5708 0 50 0ZM50 95.8333C24.7292 95.8333 4.16667 75.2708 4.16667 50C4.16667 24.7292 24.7292 4.16667 50 4.16667C75.2708 4.16667 95.8333 24.7292 95.8333 50C95.8333 75.2708 75.2708 95.8333 50 95.8333Z" fill="#141414"/>
</g>
<defs>
<clipPath id="clip0_97_76">
<rect width="100" height="100" fill="white"/>
</clipPath>
</defs>
</svg>
