<svg width="100" height="100" viewBox="0 0 100 100" fill="none" xmlns="http://www.w3.org/2000/svg">
<g clip-path="url(#clip0_97_84)">
<path d="M50 0C22.4292 0 0 22.4292 0 50C0 77.5708 22.4292 100 50 100C77.5708 100 100 77.5708 100 50C100 22.4292 77.5708 0 50 0ZM56.25 58.3333H37.5V75C37.5 77.3 35.6375 79.1667 33.3333 79.1667C31.0292 79.1667 29.1667 77.3 29.1667 75V37.5C29.1667 28.3083 36.6417 20.8333 45.8333 20.8333H56.25C66.5875 20.8333 75 29.2458 75 39.5833C75 49.9208 66.5875 58.3333 56.25 58.3333ZM66.6667 39.5833C66.6667 45.325 61.9958 50 56.25 50H37.5V37.5C37.5 32.9042 41.2375 29.1667 45.8333 29.1667H56.25C61.9958 29.1667 66.6667 33.8417 66.6667 39.5833Z" fill="#141414"/>
</g>
<defs>
<clipPath id="clip0_97_84">
<rect width="100" height="100" fill="white"/>
</clipPath>
</defs>
</svg>
