<svg width="100" height="100" viewBox="0 0 100 100" fill="none" xmlns="http://www.w3.org/2000/svg">
<g clip-path="url(#clip0_14_1949)">
<path d="M50 0C40.111 0 30.444 2.93245 22.2215 8.42652C13.9991 13.9206 7.59043 21.7295 3.80605 30.8658C0.0216643 40.0021 -0.968503 50.0555 0.960758 59.7545C2.89002 69.4536 7.65206 78.3627 14.6447 85.3553C21.6373 92.348 30.5465 97.11 40.2455 99.0393C49.9446 100.969 59.9979 99.9784 69.1342 96.194C78.2705 92.4096 86.0794 86.001 91.5735 77.7785C97.0676 69.5561 100 59.8891 100 50C99.9857 36.7436 94.7132 24.0342 85.3395 14.6605C75.9658 5.28678 63.2564 0.0143378 50 0ZM50 91.6667C41.7591 91.6667 33.7033 89.223 26.8513 84.6446C19.9992 80.0662 14.6587 73.5587 11.505 65.9452C8.35139 58.3316 7.52625 49.9538 9.13397 41.8712C10.7417 33.7887 14.7101 26.3644 20.5372 20.5372C26.3644 14.71 33.7887 10.7417 41.8713 9.13395C49.9538 7.52623 58.3316 8.35137 65.9452 11.505C73.5588 14.6587 80.0662 19.9992 84.6446 26.8512C89.223 33.7033 91.6667 41.7591 91.6667 50C91.6546 61.047 87.2608 71.638 79.4494 79.4494C71.638 87.2608 61.047 91.6545 50 91.6667Z" fill="#6E6E6E"/>
<path d="M50 20.8333C48.8949 20.8333 47.8351 21.2722 47.0537 22.0536C46.2723 22.835 45.8333 23.8949 45.8333 24.9999V58.3333C45.8333 59.4383 46.2723 60.4981 47.0537 61.2795C47.8351 62.0609 48.8949 62.4999 50 62.4999C51.1051 62.4999 52.1649 62.0609 52.9463 61.2795C53.7277 60.4981 54.1667 59.4383 54.1667 58.3333V24.9999C54.1667 23.8949 53.7277 22.835 52.9463 22.0536C52.1649 21.2722 51.1051 20.8333 50 20.8333Z" fill="#6E6E6E"/>
<path d="M54.1667 74.9999C54.1667 72.6987 52.3012 70.8333 50 70.8333C47.6988 70.8333 45.8333 72.6987 45.8333 74.9999C45.8333 77.3011 47.6988 79.1666 50 79.1666C52.3012 79.1666 54.1667 77.3011 54.1667 74.9999Z" fill="#6E6E6E"/>
</g>
<defs>
<clipPath id="clip0_14_1949">
<rect width="100" height="100" fill="white"/>
</clipPath>
</defs>
</svg>
