<svg width="100" height="100" viewBox="0 0 100 100" fill="none" xmlns="http://www.w3.org/2000/svg">
<g clip-path="url(#clip0_97_48)">
<path d="M29.1667 91.6667H20.8333C17.5181 91.6667 14.3387 90.3497 11.9945 88.0055C9.65029 85.6613 8.33333 82.4819 8.33333 79.1667V20.8333C8.33333 17.5181 9.65029 14.3387 11.9945 11.9945C14.3387 9.65029 17.5181 8.33333 20.8333 8.33333H29.1667C30.2717 8.33333 31.3315 7.89435 32.1129 7.11294C32.8943 6.33154 33.3333 5.27174 33.3333 4.16667C33.3333 3.0616 32.8943 2.00179 32.1129 1.22039C31.3315 0.438987 30.2717 0 29.1667 0L20.8333 0C15.31 0.00661607 10.0148 2.20367 6.10925 6.10925C2.20367 10.0148 0.00661607 15.31 0 20.8333L0 79.1667C0.00661607 84.69 2.20367 89.9852 6.10925 93.8908C10.0148 97.7963 15.31 99.9934 20.8333 100H29.1667C30.2717 100 31.3315 99.561 32.1129 98.7796C32.8943 97.9982 33.3333 96.9384 33.3333 95.8333C33.3333 94.7283 32.8943 93.6684 32.1129 92.887C31.3315 92.1056 30.2717 91.6667 29.1667 91.6667Z" fill="white"/>
<path d="M95.8333 45.8334L30.0958 45.9668C30.4613 45.288 30.9183 44.6627 31.4542 44.1084L47.6167 27.9459C48.0146 27.5616 48.332 27.1018 48.5504 26.5934C48.7688 26.0851 48.8837 25.5383 48.8885 24.9851C48.8933 24.4319 48.7879 23.8832 48.5784 23.3711C48.3689 22.8591 48.0595 22.3938 47.6683 22.0026C47.2771 21.6114 46.8119 21.302 46.2998 21.0925C45.7877 20.883 45.2391 20.7776 44.6858 20.7824C44.1326 20.7872 43.5858 20.9021 43.0775 21.1205C42.5691 21.3389 42.1093 21.6563 41.725 22.0543L25.5542 38.2168C22.4296 41.3422 20.6744 45.5807 20.6744 50.0001C20.6744 54.4195 22.4296 58.658 25.5542 61.7834L41.7167 77.9459C42.101 78.3439 42.5608 78.6613 43.0691 78.8797C43.5775 79.0981 44.1242 79.213 44.6775 79.2178C45.2307 79.2226 45.7794 79.1172 46.2915 78.9077C46.8035 78.6982 47.2687 78.3888 47.66 77.9976C48.0512 77.6064 48.3606 77.1411 48.5701 76.6291C48.7796 76.117 48.885 75.5683 48.8802 75.0151C48.8754 74.4618 48.7604 73.9151 48.5421 73.4067C48.3237 72.8984 48.0063 72.4386 47.6083 72.0543L31.4458 55.8918C30.9795 55.4116 30.5724 54.8772 30.2333 54.3001L95.8333 54.1668C96.9384 54.1668 97.9982 53.7278 98.7796 52.9464C99.561 52.165 100 51.1052 100 50.0001C100 48.895 99.561 47.8352 98.7796 47.0538C97.9982 46.2724 96.9384 45.8334 95.8333 45.8334Z" fill="white"/>
</g>
<defs>
<clipPath id="clip0_97_48">
<rect width="100" height="100" fill="white"/>
</clipPath>
</defs>
</svg>
