<svg width="100" height="100" viewBox="0 0 100 100" fill="none" xmlns="http://www.w3.org/2000/svg">
<path d="M87.5 16.6667H74.5833C73.6163 11.9642 71.0576 7.73894 67.3386 4.70299C63.6195 1.66704 58.9675 0.00606052 54.1667 0L45.8333 0C41.0325 0.00606052 36.3805 1.66704 32.6615 4.70299C28.9424 7.73894 26.3837 11.9642 25.4167 16.6667H12.5C11.3949 16.6667 10.3351 17.1057 9.55373 17.8871C8.77233 18.6685 8.33334 19.7283 8.33334 20.8333C8.33334 21.9384 8.77233 22.9982 9.55373 23.7796C10.3351 24.561 11.3949 25 12.5 25H16.6667V79.1667C16.6733 84.69 18.8704 89.9852 22.7759 93.8908C26.6815 97.7963 31.9767 99.9934 37.5 100H62.5C68.0233 99.9934 73.3185 97.7963 77.2241 93.8908C81.1297 89.9852 83.3267 84.69 83.3333 79.1667V25H87.5C88.6051 25 89.6649 24.561 90.4463 23.7796C91.2277 22.9982 91.6667 21.9384 91.6667 20.8333C91.6667 19.7283 91.2277 18.6685 90.4463 17.8871C89.6649 17.1057 88.6051 16.6667 87.5 16.6667ZM45.8333 8.33333H54.1667C56.7512 8.33649 59.2714 9.13907 61.3817 10.631C63.4921 12.123 65.0893 14.2312 65.9542 16.6667H34.0458C34.9108 14.2312 36.5079 12.123 38.6183 10.631C40.7287 9.13907 43.2489 8.33649 45.8333 8.33333ZM75 79.1667C75 82.4819 73.6831 85.6613 71.3389 88.0055C68.9946 90.3497 65.8152 91.6667 62.5 91.6667H37.5C34.1848 91.6667 31.0054 90.3497 28.6612 88.0055C26.317 85.6613 25 82.4819 25 79.1667V25H75V79.1667Z" fill="white"/>
<path d="M41.6667 75.0001C42.7717 75.0001 43.8315 74.5611 44.6129 73.7797C45.3943 72.9983 45.8333 71.9385 45.8333 70.8334V45.8334C45.8333 44.7283 45.3943 43.6685 44.6129 42.8871C43.8315 42.1057 42.7717 41.6667 41.6667 41.6667C40.5616 41.6667 39.5018 42.1057 38.7204 42.8871C37.939 43.6685 37.5 44.7283 37.5 45.8334V70.8334C37.5 71.9385 37.939 72.9983 38.7204 73.7797C39.5018 74.5611 40.5616 75.0001 41.6667 75.0001Z" fill="white"/>
<path d="M58.3334 75.0001C59.4384 75.0001 60.4982 74.5611 61.2796 73.7797C62.061 72.9983 62.5 71.9385 62.5 70.8334V45.8334C62.5 44.7283 62.061 43.6685 61.2796 42.8871C60.4982 42.1057 59.4384 41.6667 58.3334 41.6667C57.2283 41.6667 56.1685 42.1057 55.3871 42.8871C54.6057 43.6685 54.1667 44.7283 54.1667 45.8334V70.8334C54.1667 71.9385 54.6057 72.9983 55.3871 73.7797C56.1685 74.5611 57.2283 75.0001 58.3334 75.0001Z" fill="white"/>
</svg>
