<svg width="100" height="100" viewBox="0 0 100 100" fill="none" xmlns="http://www.w3.org/2000/svg">
<path d="M70.4125 83.3333C68.475 92.8292 60.0583 100 50 100C39.9417 100 31.5208 92.8292 29.5875 83.3333H70.4125ZM85.4167 29.1667C93.4583 29.1667 100 22.625 100 14.5833C100 6.54167 93.4583 0 85.4167 0C77.375 0 70.8333 6.54167 70.8333 14.5833C70.8333 22.625 77.375 29.1667 85.4167 29.1667ZM86.4167 37.45C86.0833 37.4625 85.7542 37.5 85.4167 37.5C72.7792 37.5 62.5 27.2208 62.5 14.5833C62.5 10.8167 63.4292 7.26667 65.05 4.12917C60.125 1.48333 54.525 0 48.65 0C32.3958 0 18.325 11.2875 14.8 27.15L5.00834 58.8042C2.52084 66.8458 8.53334 74.9958 16.95 74.9958H82.1833C90.85 74.9958 96.8875 66.3917 93.9375 58.2417L86.4125 37.4417L86.4167 37.45Z" fill="white"/>
</svg>
