<svg width="100" height="100" viewBox="0 0 100 100" fill="none" xmlns="http://www.w3.org/2000/svg">
<path d="M87.1667 42.6249L87.125 42.5583L68.8625 16.3583C65.3583 11.3333 59.6083 8.33325 53.4833 8.33325H33.3333C25.5917 8.33325 18.5417 13.1958 15.8 20.4374L6.925 43.8458C2.77083 46.4208 0 51.0166 0 56.2499V66.6666C0 71.2624 3.7375 74.9999 8.33333 74.9999V79.1666C8.33333 86.0583 13.9417 91.6666 20.8333 91.6666C27.725 91.6666 33.3333 86.0583 33.3333 79.1666V74.9999H66.6667V79.1666C66.6667 86.0583 72.275 91.6666 79.1667 91.6666C86.0583 91.6666 91.6667 86.0583 91.6667 79.1666V74.9999C96.2625 74.9999 100 71.2624 100 66.6666V60.4166C100 52.1458 94.6167 45.1083 87.1667 42.6249ZM65.4458 18.7458L81.425 41.6708H45.8333V12.4999H53.4833C58.25 12.4999 62.7208 14.8333 65.4458 18.7458ZM19.7 21.9166C21.8333 16.2833 27.3125 12.5041 33.3333 12.5041H41.6667V41.6708H14.5833C13.7458 41.6708 12.9292 41.7416 12.1292 41.8791L19.6958 21.9208L19.7 21.9166ZM29.1667 79.1708C29.1667 83.7666 25.4292 87.5041 20.8333 87.5041C16.2375 87.5041 12.5 83.7666 12.5 79.1708V75.0041H29.1667V79.1708ZM87.5 79.1708C87.5 83.7666 83.7625 87.5041 79.1667 87.5041C74.5708 87.5041 70.8333 83.7666 70.8333 79.1708V75.0041H87.5V79.1708ZM95.8333 66.6708C95.8333 68.9666 93.9667 70.8374 91.6667 70.8374H8.33333C6.03333 70.8374 4.16667 68.9666 4.16667 66.6708V56.2541C4.16667 50.5124 8.8375 45.8374 14.5833 45.8374H81.25C89.2917 45.8374 95.8333 52.3791 95.8333 60.4208V66.6708Z" fill="#141414"/>
</svg>
