<svg width="100" height="100" viewBox="0 0 100 100" fill="none" xmlns="http://www.w3.org/2000/svg">
<path d="M65.9542 8.33333C64.2333 3.48333 59.6 0 54.1667 0H45.8333C40.4 0 35.7667 3.48333 34.0458 8.33333H12.5V87.5C12.5 94.3917 18.1083 100 25 100H75C81.8917 100 87.5 94.3917 87.5 87.5V8.33333H65.9542ZM37.5 75H29.1667V66.6667H37.5V75ZM37.5 58.3333H29.1667V50H37.5V58.3333ZM37.5 41.6667H29.1667V33.3333H37.5V41.6667ZM70.8333 75H45.8333V66.6667H70.8333V75ZM70.8333 58.3333H45.8333V50H70.8333V58.3333ZM70.8333 41.6667H45.8333V33.3333H70.8333V41.6667Z" fill="#141414"/>
</svg>
