<svg width="100" height="100" viewBox="0 0 100 100" fill="none" xmlns="http://www.w3.org/2000/svg">
<path d="M45.8333 54.1667V29.1667C45.8333 26.8751 47.7083 25.0001 50 25.0001C52.2917 25.0001 54.1667 26.8751 54.1667 29.1667V54.1667C54.1667 56.4584 52.2917 58.3334 50 58.3334C47.7083 58.3334 45.8333 56.4584 45.8333 54.1667ZM50 62.5001C46.5417 62.5001 43.75 65.2917 43.75 68.7501C43.75 72.2084 46.5417 75.0001 50 75.0001C53.4583 75.0001 56.25 72.2084 56.25 68.7501C56.25 65.2917 53.4583 62.5001 50 62.5001ZM98.25 82.8334C95.3333 88.4584 89.2083 91.6667 81.5417 91.6667H18.5C10.7917 91.6667 4.70833 88.4584 1.79167 82.8334C-1.16667 77.1667 -0.333334 69.9167 3.875 63.8334L37.375 10.8334C40.3333 6.58341 45 4.16675 50 4.16675C55 4.16675 59.6667 6.58341 62.5 10.7084L96.1667 63.9167C100.375 70.0001 101.167 77.2084 98.2083 82.8334H98.25ZM89.2917 68.5834C89.2917 68.5834 89.2083 68.5001 89.2083 68.4167L55.5833 15.2917C54.375 13.5834 52.2917 12.5001 50 12.5001C47.7083 12.5001 45.625 13.5834 44.3333 15.4584L10.7917 68.4167C8.20833 72.0834 7.625 76.0834 9.125 78.9584C10.5833 81.7917 13.9167 83.3334 18.4583 83.3334H81.4583C86 83.3334 89.3333 81.7917 90.7917 78.9584C92.2917 76.0834 91.7083 72.0834 89.25 68.5834H89.2917Z" fill="#141414"/>
</svg>
