<svg width="100" height="100" viewBox="0 0 100 100" fill="none" xmlns="http://www.w3.org/2000/svg">
<g clip-path="url(#clip0_97_45)">
<path d="M100 50C100 50 100 50.0083 100 50.0125C99.9917 52.8167 98.8917 55.4458 96.8917 57.4125L79.6333 74.4C79.2292 74.8 78.7 75 78.1708 75C77.6333 75 77.0958 74.7917 76.6875 74.3792C75.8833 73.5625 75.8917 72.2417 76.7125 71.4333L93.9708 54.4458C94.6542 53.7708 95.1417 52.9625 95.4542 52.0875H27.0833C25.9333 52.0875 25 51.1542 25 50.0042C25 48.8542 25.9333 47.9208 27.0833 47.9208H95.4583C95.1458 47.0333 94.6583 46.2167 93.9667 45.5375L76.7125 28.5708C75.8917 27.7667 75.8792 26.4458 76.6875 25.625C77.4917 24.8 78.8125 24.7917 79.6333 25.6L96.8875 42.5667C98.8917 44.5417 100 47.175 100 49.9917C100 49.9917 100 49.9958 100 50ZM47.9167 62.5C46.7667 62.5 45.8333 63.4333 45.8333 64.5833V81.25C45.8333 89.2917 39.2917 95.8333 31.25 95.8333H18.75C10.7083 95.8333 4.16667 89.2917 4.16667 81.25V18.75C4.16667 10.7083 10.7083 4.16667 18.75 4.16667H31.25C39.2917 4.16667 45.8333 10.7083 45.8333 18.75V35.4167C45.8333 36.5667 46.7667 37.5 47.9167 37.5C49.0667 37.5 50 36.5667 50 35.4167V18.75C50 8.4125 41.5875 0 31.25 0H18.75C8.4125 0 0 8.4125 0 18.75V81.25C0 91.5875 8.4125 100 18.75 100H31.25C41.5875 100 50 91.5875 50 81.25V64.5833C50 63.4333 49.0667 62.5 47.9167 62.5Z" fill="#141414"/>
</g>
<defs>
<clipPath id="clip0_97_45">
<rect width="100" height="100" fill="white"/>
</clipPath>
</defs>
</svg>
