<svg width="120" height="120" viewBox="0 0 120 120" fill="none" xmlns="http://www.w3.org/2000/svg">
<path d="M110 90H10C7.34784 90 4.8043 88.9464 2.92893 87.0711C1.05357 85.1957 0 82.6522 0 80V75C0 69.6957 2.10714 64.6086 5.85786 60.8579C9.60859 57.1071 14.6957 55 20 55H100C105.304 55 110.391 57.1071 114.142 60.8579C117.893 64.6086 120 69.6957 120 75V80C120 82.6522 118.946 85.1957 117.071 87.0711C115.196 88.9464 112.652 90 110 90ZM15.29 100C12.355 119.77 42.65 119.76 39.71 100H15.29ZM80.29 100C77.355 119.77 107.65 119.76 104.71 100H80.29ZM60 45H99.125L82.185 20.705C79.8822 17.401 76.8152 14.7022 73.245 12.8384C69.6749 10.9745 65.7074 10.0008 61.68 10H60V45ZM50 10H42.5C37.4301 10.0172 32.4841 11.568 28.3121 14.4487C24.1401 17.3294 20.9374 21.4051 19.125 26.14L11.5 46.245C14.2583 45.4214 17.1214 45.002 20 45H50V10Z" fill="#141414"/>
</svg>
