<svg width="100" height="100" viewBox="0 0 100 100" fill="none" xmlns="http://www.w3.org/2000/svg">
<g clip-path="url(#clip0_97_117)">
<path d="M98.7792 92.8876L73.9083 68.0167C80.6859 59.7275 84.0183 49.1504 83.216 38.4732C82.4138 27.796 77.5384 17.8356 69.5983 10.6522C61.6582 3.46886 51.2608 -0.387881 40.5568 -0.120248C29.8529 0.147384 19.6613 4.51892 12.0901 12.0901C4.51885 19.6613 0.147323 29.8529 -0.120309 40.5569C-0.387942 51.2609 3.4688 61.6582 10.6522 69.5983C17.8356 77.5385 27.796 82.4139 38.4732 83.2161C49.1504 84.0183 59.7275 80.686 68.0167 73.9084L92.8875 98.7792C93.6733 99.5382 94.7259 99.9582 95.8183 99.9487C96.9108 99.9392 97.9559 99.501 98.7284 98.7285C99.5009 97.9559 99.9392 96.9109 99.9487 95.8184C99.9581 94.7259 99.5382 93.6734 98.7792 92.8876ZM41.6667 75.0001C35.074 75.0001 28.6293 73.0451 23.1477 69.3824C17.666 65.7197 13.3936 60.5137 10.8707 54.4228C8.34777 48.332 7.68766 41.6298 8.97383 35.1637C10.26 28.6977 13.4347 22.7583 18.0964 18.0965C22.7582 13.4348 28.6976 10.2601 35.1637 8.97389C41.6297 7.68772 48.3319 8.34783 54.4228 10.8707C60.5137 13.3937 65.7196 17.6661 69.3823 23.1477C73.045 28.6294 75 35.074 75 41.6667C74.9901 50.5042 71.475 58.9769 65.2259 65.226C58.9769 71.4751 50.5042 74.9901 41.6667 75.0001Z" fill="#CCCCCC"/>
</g>
<defs>
<clipPath id="clip0_97_117">
<rect width="100" height="100" fill="white"/>
</clipPath>
</defs>
</svg>
