<svg width="100" height="100" viewBox="0 0 100 100" fill="none" xmlns="http://www.w3.org/2000/svg">
<g clip-path="url(#clip0_14_1935)">
<path d="M4.20833 48.0042C4.16249 49.125 3.23749 50 2.12916 50H2.03749C0.887494 49.9458 -0.00417264 48.9792 0.0458274 47.8292C1.19583 21.0083 23.1375 0 50 0C66.8333 0 82.4542 8.60833 91.6667 22.5583V2.08333C91.6667 0.933333 92.6 0 93.75 0C94.9 0 95.8333 0.933333 95.8333 2.08333V22.9167C95.8333 26.3625 93.0292 29.1667 89.5833 29.1667H68.75C67.6 29.1667 66.6667 28.2333 66.6667 27.0833C66.6667 25.9333 67.6 25 68.75 25H88.3C79.8708 12.1208 65.4917 4.16667 50 4.16667C25.375 4.16667 5.26249 23.4208 4.20833 48.0042ZM97.9583 50C96.6167 49.9375 95.8333 50.8458 95.7875 51.9958C94.7375 76.5792 74.625 95.8333 50 95.8333C34.5083 95.8333 20.1292 87.8792 11.7 75H31.25C32.4 75 33.3333 74.0667 33.3333 72.9167C33.3333 71.7667 32.4 70.8333 31.25 70.8333H10.4167C6.97083 70.8333 4.16666 73.6375 4.16666 77.0833V97.9167C4.16666 99.0667 5.09999 100 6.24999 100C7.39999 100 8.33333 99.0667 8.33333 97.9167V77.4417C17.5458 91.3875 33.1667 100 50 100C76.8625 100 98.8083 78.9917 99.9542 52.1708C100.004 51.0208 99.1083 50.05 97.9583 50Z" fill="#141414"/>
</g>
<defs>
<clipPath id="clip0_14_1935">
<rect width="100" height="100" fill="white"/>
</clipPath>
</defs>
</svg>
