<svg width="100" height="100" viewBox="0 0 100 100" fill="none" xmlns="http://www.w3.org/2000/svg">
<g clip-path="url(#clip0_97_101)">
<path d="M50 0C40.111 0 30.444 2.93245 22.2215 8.42652C13.9991 13.9206 7.59043 21.7295 3.80605 30.8658C0.0216643 40.0021 -0.968503 50.0555 0.960759 59.7545C2.89002 69.4536 7.65206 78.3627 14.6447 85.3553C21.6373 92.348 30.5465 97.11 40.2455 99.0393C49.9446 100.969 59.9979 99.9784 69.1342 96.194C78.2705 92.4096 86.0794 86.001 91.5735 77.7785C97.0676 69.5561 100 59.8891 100 50C99.9857 36.7436 94.7133 24.0342 85.3395 14.6605C75.9658 5.28678 63.2565 0.0143378 50 0ZM50 91.6667C41.7591 91.6667 33.7033 89.223 26.8513 84.6446C19.9992 80.0662 14.6587 73.5587 11.505 65.9451C8.35139 58.3316 7.52625 49.9538 9.13397 41.8712C10.7417 33.7887 14.7101 26.3644 20.5372 20.5372C26.3644 14.71 33.7887 10.7417 41.8713 9.13395C49.9538 7.52623 58.3316 8.35137 65.9452 11.505C73.5588 14.6587 80.0662 19.9992 84.6446 26.8512C89.223 33.7033 91.6667 41.7591 91.6667 50C91.6546 61.047 87.2608 71.638 79.4494 79.4494C71.638 87.2608 61.047 91.6545 50 91.6667Z" fill="#141414"/>
<path d="M50 41.6667H45.8334C44.7283 41.6667 43.6685 42.1057 42.8871 42.8871C42.1057 43.6685 41.6667 44.7283 41.6667 45.8334C41.6667 46.9385 42.1057 47.9983 42.8871 48.7797C43.6685 49.5611 44.7283 50.0001 45.8334 50.0001H50V75.0001C50 76.1051 50.439 77.165 51.2204 77.9464C52.0018 78.7278 53.0616 79.1667 54.1667 79.1667C55.2718 79.1667 56.3316 78.7278 57.113 77.9464C57.8944 77.165 58.3334 76.1051 58.3334 75.0001V50.0001C58.3334 47.7899 57.4554 45.6703 55.8926 44.1075C54.3298 42.5447 52.2102 41.6667 50 41.6667Z" fill="#141414"/>
<path d="M50 33.3333C53.4518 33.3333 56.25 30.535 56.25 27.0833C56.25 23.6315 53.4518 20.8333 50 20.8333C46.5482 20.8333 43.75 23.6315 43.75 27.0833C43.75 30.535 46.5482 33.3333 50 33.3333Z" fill="#141414"/>
</g>
<defs>
<clipPath id="clip0_97_101">
<rect width="100" height="100" fill="white"/>
</clipPath>
</defs>
</svg>
