<svg width="120" height="120" viewBox="0 0 120 120" fill="none" xmlns="http://www.w3.org/2000/svg">
<path d="M95 55C93.9974 55.0019 92.9957 55.0621 92 55.18L88.965 46.08C91.44 45.645 94.055 45.32 96.43 45.145C97.318 46.625 98.574 47.85 100.076 48.7008C101.578 49.5516 103.274 49.9992 105 50H110V30H105C103.219 29.9998 101.471 30.4752 99.9349 31.3771C98.3992 32.279 97.1323 33.5746 96.265 35.13C92.8755 35.3594 89.5028 35.7919 86.165 36.425L85.77 36.505L78.605 15H55V25H71.395L76.44 40.135C74.1943 41.4818 72.1351 43.1174 70.315 45H44.125C43.092 42.0782 41.1794 39.5481 38.6501 37.7575C36.1208 35.9668 33.099 35.0035 30 35H10V45H30C30.924 45.0109 31.8271 45.2761 32.6103 45.7665C33.3935 46.257 34.0264 46.9537 34.4397 47.7802C34.8529 48.6067 35.0305 49.531 34.953 50.4518C34.8754 51.3726 34.5457 52.2543 34 53L31.8 55.93C28.0825 54.9055 24.179 54.7504 20.3919 55.4767C16.6048 56.2031 13.0357 57.7914 9.96099 60.1187C6.88632 62.446 4.38859 65.4497 2.66125 68.8974C0.933916 72.345 0.0233242 76.1439 0 80C0.525 110.445 44.085 113.925 49.635 84.26C52.5718 83.3044 55.1433 81.4679 57 79L75.76 54C76.8947 52.4919 78.2305 51.1461 79.73 50L82.5 58.35C77.7908 61.1383 74.1232 65.3906 72.0567 70.4582C69.9902 75.5258 69.6383 81.1302 71.0548 86.4165C72.4712 91.7027 75.5783 96.3804 79.9017 99.7358C84.2251 103.091 89.5276 104.94 95 105C128.04 103.95 128.03 56.045 95 55ZM25 95C21.0218 95 17.2064 93.4196 14.3934 90.6066C11.5804 87.7936 10 83.9782 10 80C10 76.0218 11.5804 72.2064 14.3934 69.3934C17.2064 66.5804 21.0218 65 25 65L22 69C20.8857 70.4857 20.2072 72.2523 20.0404 74.1019C19.8736 75.9516 20.2252 77.8111 21.0557 79.4721C21.8863 81.1332 23.1629 82.5302 24.7427 83.5065C26.3224 84.4829 28.1429 85 30 85H39.14C38.1061 87.9242 36.1913 90.456 33.659 92.2468C31.1267 94.0377 28.1016 94.9996 25 95ZM49 73C48.5343 73.621 47.9303 74.125 47.2361 74.4721C46.5418 74.8193 45.7762 75 45 75H30L42 59C42.9153 57.7826 43.6418 56.4341 44.155 55H62.5L49 73ZM95 95C91.8963 94.958 88.8814 93.9583 86.3675 92.1376C83.8536 90.3169 81.9634 87.7642 80.9555 84.8284C79.9475 81.8927 79.871 78.7173 80.7364 75.7364C81.6017 72.7555 83.3667 70.1146 85.79 68.175L90.215 81.445C90.41 82.0845 90.7312 82.6783 91.1597 83.1915C91.5882 83.7046 92.1153 84.1266 92.7097 84.4325C93.3041 84.7384 93.9539 84.922 94.6205 84.9724C95.2871 85.0229 95.9571 84.9391 96.5907 84.7261C97.2244 84.5131 97.8089 84.1751 98.3098 83.7323C98.8106 83.2894 99.2175 82.7507 99.5064 82.1478C99.7954 81.545 99.9605 80.8903 99.992 80.2225C100.024 79.5547 99.9209 78.8874 99.69 78.26L95.27 65C99.2483 65.0358 103.049 66.6505 105.837 69.4889C108.625 72.3272 110.171 76.1568 110.135 80.135C110.099 84.1132 108.485 87.9143 105.646 90.7021C102.808 93.4898 98.9782 95.0358 95 95Z" fill="#141414"/>
</svg>
