<svg width="100" height="100" viewBox="0 0 100 100" fill="none" xmlns="http://www.w3.org/2000/svg">
<path d="M79.1667 12.5H20.8333C9.32917 12.5 0 21.8292 0 33.3333V66.6667C0 78.1708 9.32917 87.5 20.8333 87.5H79.1667C90.6708 87.5 100 78.1708 100 66.6667V33.3333C100 21.8292 90.6708 12.5 79.1667 12.5ZM28.3417 72.3292C20.3875 70.4583 14.1583 63.7542 12.8042 55.6958C10.85 44.0667 18.5417 33.825 29.1667 31.6667V50.3542C29.1667 52.5625 30.0458 54.6833 31.6083 56.2458L44.8125 69.45C40.2583 72.4667 34.4667 73.7667 28.3417 72.3292ZM50.7 63.5583L38.7167 51.575C37.9333 50.7917 37.4958 49.7333 37.4958 48.6292V31.6708C47.0042 33.6 54.1625 42.0042 54.1625 52.0833C54.1625 56.3292 52.8792 60.2667 50.6958 63.5583H50.7ZM83.3333 70.8333H70.8333C68.5333 70.8333 66.6667 68.9667 66.6667 66.6667C66.6667 64.3667 68.5333 62.5 70.8333 62.5H83.3333C85.6333 62.5 87.5 64.3667 87.5 66.6667C87.5 68.9667 85.6333 70.8333 83.3333 70.8333ZM83.3333 54.1667H70.8333C68.5333 54.1667 66.6667 52.3 66.6667 50C66.6667 47.7 68.5333 45.8333 70.8333 45.8333H83.3333C85.6333 45.8333 87.5 47.7 87.5 50C87.5 52.3 85.6333 54.1667 83.3333 54.1667ZM83.3333 37.5H70.8333C68.5333 37.5 66.6667 35.6333 66.6667 33.3333C66.6667 31.0333 68.5333 29.1667 70.8333 29.1667H83.3333C85.6333 29.1667 87.5 31.0333 87.5 33.3333C87.5 35.6333 85.6333 37.5 83.3333 37.5Z" fill="#141414"/>
</svg>
