<svg width="100" height="100" viewBox="0 0 100 100" fill="none" xmlns="http://www.w3.org/2000/svg">
<g clip-path="url(#clip0_14_1938)">
<path d="M58.3333 29.1666C58.3333 30.8148 57.8446 32.426 56.9289 33.7964C56.0132 35.1668 54.7117 36.2349 53.189 36.8656C51.6663 37.4964 49.9908 37.6614 48.3743 37.3399C46.7577 37.0183 45.2729 36.2246 44.1074 35.0592C42.942 33.8938 42.1483 32.4089 41.8268 30.7924C41.5052 29.1759 41.6703 27.5003 42.301 25.9776C42.9317 24.4549 43.9998 23.1534 45.3703 22.2377C46.7407 21.322 48.3518 20.8333 50 20.8333C52.2101 20.8333 54.3298 21.7113 55.8926 23.2741C57.4554 24.8369 58.3333 26.9565 58.3333 29.1666ZM70.625 49.8208L50 70L29.4083 49.85C25.3216 45.776 22.5352 40.5813 21.4016 34.9233C20.268 29.2652 20.8383 23.398 23.0403 18.0642C25.2422 12.7303 28.9769 8.16946 33.7717 4.95875C38.5664 1.74805 44.2059 0.031776 49.9764 0.0271092C55.7469 0.0224424 61.3891 1.72959 66.1891 4.93253C70.9891 8.13548 74.7311 12.6903 76.9417 18.0206C79.1522 23.3509 79.732 29.2171 78.6076 34.877C77.4832 40.5369 74.7052 45.7402 70.625 49.8208ZM66.6667 29.1666C66.6667 25.8703 65.6892 22.648 63.8578 19.9071C62.0265 17.1663 59.4235 15.0301 56.3781 13.7686C53.3326 12.5072 49.9815 12.1771 46.7485 12.8202C43.5155 13.4633 40.5458 15.0506 38.2149 17.3815C35.884 19.7124 34.2967 22.6821 33.6536 25.9151C33.0105 29.1482 33.3405 32.4993 34.602 35.5447C35.8635 38.5901 37.9997 41.1931 40.7405 43.0245C43.4813 44.8558 46.7036 45.8333 50 45.8333C54.4203 45.8333 58.6595 44.0774 61.7851 40.9518C64.9107 37.8261 66.6667 33.5869 66.6667 29.1666ZM91.1125 44.2208L85.1333 42.2208C83.2724 47.2904 80.3324 51.8952 76.5167 55.7166L50 81.6666L23.5833 55.8333C18.5687 50.8373 15.0726 44.5225 13.5 37.6208C11.7822 37.4627 10.0504 37.6657 8.41579 38.2168C6.78117 38.7679 5.27992 39.6548 4.00851 40.8207C2.7371 41.9865 1.72366 43.4055 1.03332 44.9863C0.342975 46.5672 -0.00900429 48.275 6.72939e-07 50V90.6333L33.2625 100.137L66.6792 91.8041L100.013 99.9208V56.1791C100.011 53.4937 99.1443 50.8802 97.5414 48.7256C95.9384 46.5711 93.6842 44.9942 91.1125 44.2208Z" fill="#141414"/>
</g>
<defs>
<clipPath id="clip0_14_1938">
<rect width="100" height="100" fill="white"/>
</clipPath>
</defs>
</svg>
