<svg width="100" height="100" viewBox="0 0 100 100" fill="none" xmlns="http://www.w3.org/2000/svg">
<g clip-path="url(#clip0_97_40)">
<path d="M88.475 59.0583L86.6208 57.9166C87.2042 55.25 87.5 52.5958 87.5 50.0041C87.5 47.4125 87.2042 44.7541 86.6208 42.0916L88.475 40.95C91.3167 39.1958 93.3083 36.4416 94.075 33.1916C94.8458 29.9458 94.3 26.5875 92.5458 23.7458C88.925 17.8833 81.2125 16.0583 75.3458 19.6708L73.4917 20.8166C70.1542 18.1208 66.4708 16.0458 62.5 14.6458V12.5041C62.5 5.61248 56.8917 0.00415039 50 0.00415039C43.1083 0.00415039 37.5 5.61248 37.5 12.5041V14.6458C33.5292 16.05 29.8458 18.1208 26.5083 20.8166L24.6542 19.6708C18.7833 16.0583 11.0708 17.8791 7.45416 23.7458C5.7 26.5875 5.15833 29.9417 5.925 33.1916C6.69583 36.4416 8.68333 39.1958 11.525 40.95L13.3792 42.0916C12.7958 44.7583 12.5 47.4125 12.5 50.0041C12.5 52.5958 12.7958 55.2541 13.3792 57.9166L11.525 59.0583C8.68333 60.8125 6.69166 63.5666 5.925 66.8166C5.15416 70.0625 5.7 73.4208 7.45416 76.2625C11.0708 82.125 18.7917 83.95 24.6542 80.3375L26.5083 79.1917C29.8458 81.8875 33.5292 83.9625 37.5 85.3625V87.5041C37.5 94.3958 43.1083 100.004 50 100.004C56.8917 100.004 62.5 94.3958 62.5 87.5041V85.3625C66.4708 83.9583 70.1542 81.8875 73.4917 79.1917L75.3458 80.3375C81.2208 83.95 88.9292 82.1291 92.5458 76.2625C94.3 73.4208 94.8417 70.0666 94.075 66.8166C93.3042 63.5666 91.3167 60.8125 88.475 59.0583ZM89 74.075C86.5833 77.9833 81.4375 79.2083 77.5333 76.7875L74.3958 74.85C73.6167 74.375 72.6167 74.4541 71.9292 75.0583C68.3375 78.2083 64.2583 80.4958 59.8042 81.8667C58.9292 82.1333 58.3333 82.9416 58.3333 83.8583V87.5041C58.3333 92.1 54.5958 95.8375 50 95.8375C45.4042 95.8375 41.6667 92.1 41.6667 87.5041V83.8583C41.6667 82.9416 41.0708 82.1375 40.1958 81.8667C35.7417 80.4958 31.6625 78.2083 28.0708 75.0583C27.6792 74.7166 27.1917 74.5416 26.6958 74.5416C26.3167 74.5416 25.9375 74.6417 25.6 74.85L22.4625 76.7875C18.5542 79.2083 13.4083 77.9833 10.9958 74.075C9.82916 72.1833 9.46666 69.9458 9.97916 67.7792C10.4917 65.6083 11.8167 63.775 13.7125 62.6083L16.85 60.6708C17.6292 60.1916 18 59.2583 17.7708 58.3708C17.0375 55.5416 16.6667 52.7291 16.6667 50C16.6667 47.2708 17.0375 44.4583 17.7708 41.6291C18 40.7416 17.625 39.8083 16.85 39.3291L13.7125 37.3916C11.8167 36.225 10.4958 34.3875 9.97916 32.2208C9.46666 30.0541 9.82916 27.8167 10.9958 25.925C13.4125 22.0125 18.5542 20.7917 22.4625 23.2125L25.6 25.15C26.3792 25.625 27.375 25.5458 28.0667 24.9416C31.6583 21.7917 35.7375 19.5042 40.1917 18.1333C41.0667 17.8667 41.6625 17.0583 41.6625 16.1417V12.4958C41.6625 7.89998 45.4 4.16248 49.9958 4.16248C54.5917 4.16248 58.3292 7.89998 58.3292 12.4958V16.1417C58.3292 17.0583 58.925 17.8625 59.8 18.1333C64.2542 19.5042 68.3333 21.7917 71.925 24.9416C72.6167 25.5458 73.6167 25.625 74.3917 25.15L77.5292 23.2125C81.4375 20.7917 86.5792 22.0125 88.9958 25.925C90.1625 27.8167 90.525 30.0541 90.0125 32.2208C89.5 34.3916 88.175 36.225 86.2792 37.3916L83.1417 39.3291C82.3625 39.8083 81.9917 40.7416 82.2208 41.6291C82.9542 44.4583 83.325 47.2708 83.325 50C83.325 52.7291 82.9542 55.5416 82.2208 58.3708C81.9917 59.2583 82.3667 60.1916 83.1417 60.6708L86.2792 62.6083C88.175 63.775 89.4958 65.6125 90.0125 67.7792C90.525 69.9458 90.1625 72.1833 88.9958 74.075H89ZM50 33.3333C40.8083 33.3333 33.3333 40.8083 33.3333 50C33.3333 59.1916 40.8083 66.6666 50 66.6666C59.1917 66.6666 66.6667 59.1916 66.6667 50C66.6667 40.8083 59.1917 33.3333 50 33.3333ZM50 62.5C43.1083 62.5 37.5 56.8916 37.5 50C37.5 43.1083 43.1083 37.5 50 37.5C56.8917 37.5 62.5 43.1083 62.5 50C62.5 56.8916 56.8917 62.5 50 62.5Z" fill="#141414"/>
</g>
<defs>
<clipPath id="clip0_97_40">
<rect width="100" height="100" fill="white"/>
</clipPath>
</defs>
</svg>
