<svg width="100" height="100" viewBox="0 0 100 100" fill="none" xmlns="http://www.w3.org/2000/svg">
<path d="M50 50C63.7875 50 75 38.7875 75 25C75 11.2125 63.7875 0 50 0C36.2125 0 25 11.2125 25 25C25 38.7875 36.2125 50 50 50ZM50 4.16667C61.4875 4.16667 70.8333 13.5125 70.8333 25C70.8333 36.4875 61.4875 45.8333 50 45.8333C38.5125 45.8333 29.1667 36.4875 29.1667 25C29.1667 13.5125 38.5125 4.16667 50 4.16667ZM87.5 95.8333V97.9167C87.5 99.0667 86.5667 100 85.4167 100C84.2667 100 83.3333 99.0667 83.3333 97.9167V95.8333C83.3333 77.4542 68.3792 62.5 50 62.5C31.6208 62.5 16.6667 77.4542 16.6667 95.8333V97.9167C16.6667 99.0667 15.7333 100 14.5833 100C13.4333 100 12.5 99.0667 12.5 97.9167V95.8333C12.5 75.1583 29.325 58.3333 50 58.3333C70.675 58.3333 87.5 75.1583 87.5 95.8333Z" fill="#141414"/>
</svg>
