<svg width="100" height="100" viewBox="0 0 100 100" fill="none" xmlns="http://www.w3.org/2000/svg">
<path d="M91.6667 74.9999H8.33333C6.1232 74.9999 4.00358 74.1219 2.44078 72.5591C0.877974 70.9963 0 68.8767 0 66.6666V62.4999C0 58.0796 1.75595 53.8404 4.88155 50.7148C8.00716 47.5892 12.2464 45.8333 16.6667 45.8333H83.3333C87.7536 45.8333 91.9928 47.5892 95.1184 50.7148C98.244 53.8404 100 58.0796 100 62.4999V66.6666C100 68.8767 99.122 70.9963 97.5592 72.5591C95.9964 74.1219 93.8768 74.9999 91.6667 74.9999ZM12.7417 83.3332C10.2958 99.8082 35.5417 99.7999 33.0917 83.3332H12.7417ZM66.9083 83.3332C64.4625 99.8082 89.7083 99.7999 87.2583 83.3332H66.9083ZM50 37.4999H82.6042L68.4875 17.2541C66.5685 14.5007 64.0126 12.2518 61.0375 10.6986C58.0624 9.14535 54.7561 8.3339 51.4 8.33325H50V37.4999ZM41.6667 8.33325H35.4167C31.1918 8.34757 27.0701 9.63996 23.5934 12.0405C20.1167 14.4411 17.4478 17.8375 15.9375 21.7833L9.58333 38.5374C11.8819 37.8511 14.2678 37.5016 16.6667 37.4999H41.6667V8.33325Z" fill="#141414"/>
</svg>
