<svg width="100" height="100" viewBox="0 0 100 100" fill="none" xmlns="http://www.w3.org/2000/svg">
<path d="M79.1667 45.8333C78.3311 45.835 77.4964 45.885 76.6667 45.9833L74.1375 38.4C76.2 38.0375 78.3792 37.7667 80.3583 37.6208C81.0984 38.8542 82.145 39.875 83.3965 40.584C84.648 41.293 86.0617 41.666 87.5 41.6667H91.6667V25H87.5C86.0159 24.9999 84.5588 25.396 83.2791 26.1476C81.9994 26.8991 80.9436 27.9788 80.2208 29.275C77.3962 29.4662 74.5856 29.8266 71.8042 30.3542L71.475 30.4208L65.5042 12.5H45.8333V20.8333H59.4958L63.7 33.4458C61.8286 34.5682 60.1126 35.9312 58.5958 37.5H36.7708C35.91 35.0652 34.3162 32.9568 32.2084 31.4646C30.1007 29.9724 27.5825 29.1696 25 29.1667H8.33333V37.5H25C25.77 37.5091 26.5226 37.7301 27.1753 38.1388C27.8279 38.5475 28.3554 39.1281 28.6997 39.8168C29.0441 40.5056 29.1921 41.2759 29.1275 42.0432C29.0628 42.8105 28.7881 43.5452 28.3333 44.1667L26.5 46.6083C23.4021 45.7546 20.1491 45.6253 16.9932 46.2306C13.8373 46.8359 10.863 48.1595 8.30082 50.0989C5.7386 52.0383 3.65716 54.5414 2.21771 57.4145C0.778264 60.2875 0.0194368 63.4533 0 66.6667C0.4375 92.0375 36.7375 94.9375 41.3625 70.2167C43.8099 69.4204 45.9527 67.8899 47.5 65.8333L63.1333 45C64.079 43.7432 65.1921 42.6217 66.4417 41.6667L68.75 48.625C64.8257 50.9486 61.7693 54.4922 60.0472 58.7152C58.3252 62.9381 58.0319 67.6085 59.2123 72.0137C60.3927 76.4189 62.9819 80.317 66.5848 83.1131C70.1876 85.9093 74.6063 87.4499 79.1667 87.5C106.7 86.625 106.692 46.7042 79.1667 45.8333ZM20.8333 79.1667C17.5181 79.1667 14.3387 77.8497 11.9945 75.5055C9.65029 73.1613 8.33333 69.9819 8.33333 66.6667C8.33333 63.3515 9.65029 60.172 11.9945 57.8278C14.3387 55.4836 17.5181 54.1667 20.8333 54.1667L18.3333 57.5C17.4048 58.7381 16.8393 60.2103 16.7003 61.7516C16.5614 63.293 16.8543 64.8426 17.5464 66.2268C18.2385 67.611 19.3024 68.7751 20.6189 69.5888C21.9354 70.4024 23.4524 70.8333 25 70.8333H32.6167C31.7551 73.2701 30.1594 75.38 28.0492 76.8724C25.9389 78.3647 23.418 79.1663 20.8333 79.1667ZM40.8333 60.8333C40.4452 61.3508 39.942 61.7708 39.3634 62.0601C38.7848 62.3494 38.1469 62.5 37.5 62.5H25L35 49.1667C35.7628 48.1521 36.3682 47.0284 36.7958 45.8333H52.0833L40.8333 60.8333ZM79.1667 79.1667C76.5803 79.1316 74.0678 78.2985 71.9729 76.7813C69.878 75.2641 68.3028 73.1368 67.4629 70.6904C66.6229 68.2439 66.5592 65.5977 67.2803 63.1136C68.0014 60.6296 69.4723 58.4289 71.4917 56.8125L75.1792 67.8708C75.3417 68.4037 75.6094 68.8986 75.9664 69.3262C76.3235 69.7538 76.7627 70.1055 77.2581 70.3604C77.7534 70.6153 78.2949 70.7683 78.8504 70.8104C79.4059 70.8524 79.9642 70.7826 80.4923 70.6051C81.0204 70.4276 81.5075 70.1459 81.9248 69.7769C82.3421 69.4079 82.6812 68.9589 82.922 68.4565C83.1628 67.9541 83.3004 67.4086 83.3267 66.8521C83.353 66.2956 83.2674 65.7395 83.075 65.2167L79.3917 54.1667C82.7069 54.1965 85.8744 55.5421 88.1976 57.9074C90.5207 60.2727 91.809 63.464 91.7792 66.7792C91.7493 70.0944 90.4038 73.2619 88.0385 75.585C85.6732 77.9082 82.4819 79.1965 79.1667 79.1667Z" fill="#141414"/>
</svg>
